<?xml version="1.0" encoding="utf-8"?>
<!-- Generator: Adobe Illustrator 27.0.1, SVG Export Plug-In . SVG Version: 6.00 Build 0)  -->
<svg version="1.1" id="Ebene_1" xmlns="http://www.w3.org/2000/svg" xmlns:xlink="http://www.w3.org/1999/xlink" x="0px" y="0px"
	 viewBox="0 0 20 22" style="enable-background:new 0 0 20 22;" xml:space="preserve">
<g>
	<g>
		<path d="M10.1,12.5H9.9L7.9,10v4.5H6.5V8h1.7l1.9,2.5L11.9,8h1.6v6.5h-1.4V10L10.1,12.5z"/>
	</g>
	<g>
		<path d="M4.5,6c0,0,0.1-0.1,0.1-0.1C6.1,4.5,8,3.7,10,3.7s3.9,0.8,5.4,2.2c0.1,0.1,0.1,0.1,0.2,0.2l1.6-1.6c-1.8-1.9-4.3-3-7.1-3
			c-2.8,0-5.3,1.2-7.1,3L4.5,6z"/>
		<path d="M8.8,18.7c-1.6-0.2-3-1-4.2-2.1c-1.4-1.4-2.2-3.3-2.2-5.3c0-1.1,0.2-2.2,0.7-3.2L1.4,6.4c-0.8,1.4-1.3,3.1-1.3,4.8
			c0,5,3.8,9.2,8.7,9.7V18.7z"/>
		<path d="M18.6,6.4l-1.7,1.7c0.4,1,0.7,2,0.7,3.1c0,2-0.8,3.9-2.2,5.3c-1.1,1.1-2.6,1.9-4.1,2.1v2.3c4.8-0.6,8.6-4.7,8.6-9.7
			C19.8,9.5,19.4,7.8,18.6,6.4z"/>
	</g>
</g>
</svg>
