<?xml version="1.0" encoding="utf-8"?>
<!-- Generator: Adobe Illustrator 27.0.1, SVG Export Plug-In . SVG Version: 6.00 Build 0)  -->
<svg version="1.1" id="Ebene_1" xmlns="http://www.w3.org/2000/svg" xmlns:xlink="http://www.w3.org/1999/xlink" x="0px" y="0px"
	 viewBox="0 0 158 38" style="enable-background:new 0 0 158 38;" xml:space="preserve">
<style type="text/css">
	.st0{fill:#FFFFFF;}
	.st1{fill:#D1C113;}
</style>
<path class="st0" d="M43.9,28V9.8h5.5L54,22.6h0.3l4.5-12.8h5.5V28h-4.1V17h-0.4l-4,11h-3.4l-4-11h-0.4v11H43.9z M85,9.8l-7.5,12.4
	V28h-4.3v-5.9L65.7,9.8h4.6l4.9,8.1h0.5l4.9-8.1H85z"/>
<path class="st0" d="M86.2,28V9.8h6.9l6,9.8h0.5V9.8h5.9V28h-6.7l-6.2-9.8h-0.5V28H86.2z M107.3,28V9.8h16.4v4.8h-10.4v2.3h10v3.9
	h-10v2.3h10.4V28H107.3z M135.3,28.6c-6.3,0-10.3-3.9-10.3-9.7s4.1-9.7,10.3-9.7c6.3,0,10.3,3.9,10.3,9.7S141.5,28.6,135.3,28.6z
	 M135.3,23.4c2.4,0,4.4-1.6,4.4-4.5s-2-4.5-4.4-4.5c-2.4,0-4.4,1.6-4.4,4.5S132.9,23.4,135.3,23.4z"/>
<path class="st1" d="M19.2,21.5h-0.5L15,16.6v8.8h-2.8V12.8h3.2l3.6,4.8l3.7-4.8h3.2v12.6h-2.8v-8.7L19.2,21.5z"/>
<path class="st0" d="M8.4,9c0.1-0.1,0.2-0.2,0.3-0.3c2.8-2.8,6.4-4.3,10.3-4.3c3.9,0,7.6,1.5,10.3,4.3c0.1,0.1,0.2,0.2,0.3,0.3
	l3.1-3.1C29.3,2.3,24.4,0,19,0C13.6,0,8.8,2.3,5.3,5.9L8.4,9z"/>
<path class="st0" d="M16.8,33.6c-3.1-0.5-5.9-1.9-8.1-4.1C5.9,26.7,4.4,23,4.4,19.1c0-2.2,0.5-4.2,1.3-6.2L2.5,9.7
	c-1.6,2.8-2.5,6-2.5,9.4C0,28.8,7.3,36.9,16.8,38V33.6z"/>
<path class="st0" d="M35.6,9.7L32.3,13c0.9,1.9,1.3,4,1.3,6.1c0,3.9-1.5,7.6-4.3,10.4c-2.2,2.2-4.9,3.6-7.9,4.1V38
	C30.8,36.8,38,28.8,38,19.1C38,15.7,37.1,12.5,35.6,9.7z"/>
</svg>
