<svg width="22" height="22" viewBox="0 0 22 22" fill="none" xmlns="http://www.w3.org/2000/svg">
<g clip-path="url(#clip0_362_652)">
<path fill-rule="evenodd" clip-rule="evenodd" d="M10.8107 2.28037C13.5895 2.28037 13.9181 2.29121 15.0155 2.34066C16.0296 2.3874 16.581 2.55676 16.9482 2.69901C17.4332 2.88801 17.78 3.1136 18.1438 3.47805C18.5076 3.84182 18.7332 4.18798 18.9228 4.67369C19.0651 5.04085 19.2344 5.5916 19.2805 6.60637C19.3306 7.70311 19.3415 8.03234 19.3415 10.8104C19.3415 13.5885 19.3306 13.9178 19.2805 15.0152C19.2344 16.0293 19.0651 16.5807 18.9228 16.9472C18.7332 17.4329 18.5076 17.7797 18.1438 18.1435C17.78 18.5079 17.4332 18.7335 16.9482 18.9219C16.581 19.0648 16.0296 19.2341 15.0155 19.2802C13.9187 19.3303 13.5895 19.3412 10.8107 19.3412C8.03196 19.3412 7.70341 19.3303 6.60667 19.2802C5.5919 19.2341 5.04048 19.0648 4.67399 18.9219C4.18896 18.7335 3.84212 18.5079 3.47767 18.1435C3.1139 17.7797 2.88831 17.4329 2.69931 16.9472C2.55638 16.5807 2.38702 16.0293 2.34096 15.0152C2.29151 13.9178 2.28067 13.5885 2.28067 10.8104C2.28067 8.03234 2.29151 7.70311 2.34096 6.60637C2.38702 5.5916 2.55638 5.04085 2.69931 4.67369C2.88831 4.18798 3.1139 3.84182 3.47767 3.47805C3.84212 3.1136 4.18896 2.88801 4.67399 2.69901C5.04048 2.55676 5.5919 2.3874 6.60667 2.34066C7.70341 2.29121 8.03264 2.28037 10.8107 2.28037ZM10.8107 5.46763C7.8599 5.46763 5.46793 7.85959 5.46793 10.8104C5.46793 13.7619 7.8599 16.1532 10.8107 16.1532C13.7616 16.1532 16.1542 13.7619 16.1542 10.8104C16.1542 7.85959 13.7616 5.46763 10.8107 5.46763ZM10.8107 14.2788C8.89567 14.2788 7.34235 12.7262 7.34235 10.8104C7.34235 8.89537 8.89567 7.34272 10.8107 7.34272C12.7265 7.34272 14.2791 8.89537 14.2791 10.8104C14.2791 12.7262 12.7265 14.2788 10.8107 14.2788ZM17.6141 5.25627C17.6141 5.94589 17.0552 6.50476 16.3649 6.50476C15.676 6.50476 15.1164 5.94589 15.1164 5.25627C15.1164 4.56666 15.676 4.00779 16.3649 4.00779C17.0552 4.00779 17.6141 4.56666 17.6141 5.25627ZM10.5533 0.405273C7.96219 0.405951 7.59638 0.418821 6.52064 0.468273C5.41306 0.518402 4.65706 0.694531 3.99454 0.95195C3.31102 1.2175 2.73048 1.57382 2.15196 2.15234C1.57344 2.73018 1.2178 3.31072 0.951572 3.99492C0.694831 4.65676 0.519379 5.41343 0.467896 6.52034C0.417767 7.62995 0.40625 7.98492 0.40625 10.8104C0.40625 13.6366 0.417767 13.9909 0.467896 15.1005C0.519379 16.2081 0.694831 16.9641 0.951572 17.6259C1.2178 18.3108 1.57344 18.8907 2.15196 19.4699C2.73048 20.0477 3.31102 20.4034 3.99454 20.6696C4.65706 20.9263 5.41306 21.1025 6.52064 21.1533C7.63093 21.2041 7.98522 21.2156 10.8107 21.2156C13.6369 21.2156 13.9912 21.2041 15.1008 21.1533C16.2084 21.1025 16.9651 20.9263 17.6269 20.6696C18.3111 20.4034 18.8917 20.0477 19.4695 19.4699C20.048 18.8907 20.4037 18.3108 20.6699 17.6259C20.9273 16.9641 21.1028 16.2081 21.1536 15.1005C21.2023 14.0255 21.2152 13.659 21.2159 11.0685V10.553C21.2152 7.96189 21.2023 7.59608 21.1536 6.52034C21.1028 5.41343 20.9273 4.65676 20.6699 3.99492C20.4037 3.31072 20.048 2.73018 19.4695 2.15234C18.8917 1.57382 18.3111 1.2175 17.6269 0.95195C16.9651 0.694531 16.2084 0.518402 15.1008 0.468273C14.0258 0.418821 13.6593 0.405951 11.0688 0.405273H10.5533Z" fill="white"/>
</g>
<defs>
<clipPath id="clip0_362_652">
<rect width="22" height="22" fill="white"/>
</clipPath>
</defs>
</svg>
