<svg width="91" height="91" viewBox="0 0 91 91" fill="none" xmlns="http://www.w3.org/2000/svg">
<g clip-path="url(#clip0_292_587)">
<path d="M45.9399 51.5501H44.751L35.8103 39.7843V60.7861H29.1285V30.7153H36.7852L45.5119 42.2663L54.2861 30.7153H61.8714V60.7861H55.1897V39.8559L45.9399 51.5501Z" fill="white"/>
<path d="M20.069 21.4792C20.283 21.2405 20.497 21.0257 20.7348 20.8109C27.3452 14.1524 36.1432 10.5009 45.4881 10.5009C54.833 10.5009 63.6548 14.1524 70.2652 20.8109C70.5268 21.0734 70.7883 21.336 71.0261 21.5985L78.4212 14.1762C70.1463 5.44139 58.4473 0 45.4881 0C32.6002 0 20.9488 5.39365 12.6739 14.0569L20.069 21.4792Z" fill="white"/>
<path d="M40.138 80.4276C32.8142 79.306 26.0611 75.8932 20.7348 70.5472C14.1006 63.8887 10.4625 55.0584 10.4625 45.6553C10.4625 40.4764 11.5801 35.4885 13.6726 30.9301L5.92083 23.1499C2.14006 29.7846 0 37.4693 0 45.6553C0 69.0437 17.5247 88.3272 40.138 91.0002V80.4276Z" fill="white"/>
<path d="M85.1743 23.293L77.3987 31.0971C79.4437 35.6077 80.5375 40.5718 80.5375 45.679C80.5375 55.0821 76.8994 63.9124 70.2652 70.5471C65.034 75.7976 58.4711 79.1626 51.3138 80.3559V90.9762C73.6893 88.1123 90.9762 68.9242 90.9762 45.679C91 37.5408 88.8837 29.9038 85.1743 23.293Z" fill="white"/>
</g>
<defs>
<clipPath id="clip0_292_587">
<rect width="91" height="91" fill="white"/>
</clipPath>
</defs>
</svg>
