<svg width="968" height="968" viewBox="0 0 968 968" fill="none" xmlns="http://www.w3.org/2000/svg">
<g clip-path="url(#clip0_345_622)">
<path d="M380.503 423.2V646.179H310.278V327.156H391.087L483.788 449.859L484.127 450.307L484.466 449.86L577.673 327.156H657.725V646.179H587.499V423.962V422.739L586.741 423.698L488.475 547.932H476.245L381.267 422.943L380.503 421.938V423.2Z" stroke="white" stroke-width="0.850615"/>
<path d="M220.269 221.065C217.843 223.257 215.649 225.449 213.465 227.863L135.41 149.522C223.339 57.6239 347.049 0.425308 483.873 0.425308C621.455 0.425308 745.671 58.1312 833.601 150.79L755.544 229.134C753.089 226.445 750.412 223.757 747.742 221.078L747.738 221.074C747.737 221.073 747.737 221.073 747.737 221.073C677.34 150.163 583.391 111.277 483.873 111.277C384.358 111.277 290.665 150.161 220.269 221.065Z" stroke="white" stroke-width="0.850615"/>
<path d="M220.262 750.737C276.897 807.579 348.68 843.901 426.537 855.903V967.523C186.434 938.901 0.425308 734.062 0.425308 485.652C0.425308 398.85 23.0658 317.352 63.0752 246.95L144.931 329.106C122.726 377.577 110.868 430.602 110.868 485.652C110.868 585.788 149.612 679.827 220.262 750.737Z" stroke="white" stroke-width="0.850615"/>
<path d="M967.323 485.903V485.904C967.323 732.79 783.843 936.613 546.271 967.263V855.135C622.355 842.375 692.116 806.562 747.739 750.736C818.389 680.08 857.133 586.04 857.133 485.904C857.133 431.616 845.528 378.847 823.829 330.882L905.935 248.474C945.189 318.621 967.575 399.61 967.323 485.903Z" stroke="white" stroke-width="0.850615"/>
</g>
<defs>
<clipPath id="clip0_345_622">
<rect width="968" height="968" fill="white"/>
</clipPath>
</defs>
</svg>
