<svg width="32" height="32" viewBox="0 0 32 32" fill="none" xmlns="http://www.w3.org/2000/svg">
<path d="M22.7384 18.4625C22.58 18.3734 22.4004 18.2723 22.1841 18.1421C22.0633 18.0692 21.9115 17.9695 21.7506 17.864C20.9249 17.322 20.2992 16.9383 19.7666 16.9383C19.6418 16.9383 19.5238 16.9595 19.4162 17.001C18.9496 17.1806 18.5664 17.6607 18.1959 18.1249C18.0601 18.295 17.8657 18.5385 17.7477 18.6473C17.2799 18.5622 16.2931 17.9509 15.2282 16.886C14.1621 15.8199 13.5506 14.832 13.4667 14.3652C13.5754 14.2468 13.8207 14.051 13.9919 13.9143C14.4543 13.5451 14.9325 13.1634 15.1132 12.6982C15.3437 12.1005 14.9212 11.3857 14.2503 10.3636C14.1447 10.2027 14.045 10.0508 13.9726 9.93096C13.8419 9.71377 13.7409 9.53409 13.6518 9.37571C13.286 8.72559 13.0443 8.2959 12.1361 8.2959C11.5467 8.2959 10.7133 8.8529 10.1488 9.40527C9.32843 10.2082 8.87656 11.1352 8.87656 12.0173C8.87812 14.4132 10.2152 17.1592 12.5451 19.554C12.5491 19.558 12.5531 19.559 12.5572 19.563C14.952 21.893 17.6995 23.2255 20.0953 23.2255H20.0962C20.9772 23.2255 21.9045 22.7788 22.7074 21.9589C23.2602 21.3945 23.8179 20.5671 23.8179 19.9781C23.818 19.07 23.3886 18.8284 22.7384 18.4625ZM20.0956 21.9877C18.0548 21.9862 15.5654 20.7495 13.4351 18.6793C11.3647 16.5488 10.1279 14.0591 10.1266 12.0186C10.1266 10.7843 11.7284 9.61071 12.1472 9.5464C12.2328 9.54677 12.2777 9.55184 12.2991 9.55546C12.3544 9.61921 12.4645 9.81484 12.5625 9.98902C12.6512 10.1466 12.7616 10.3429 12.9022 10.5766C12.9872 10.7174 13.0932 10.8788 13.2054 11.0497C13.4177 11.3732 13.8446 12.0235 13.9165 12.301C13.7962 12.4713 13.4229 12.7693 13.2121 12.9376C12.6727 13.3683 12.2068 13.7401 12.2068 14.2657C12.2081 15.5352 13.8433 17.269 14.3444 17.7701C14.8456 18.2712 16.5793 19.9064 17.8515 19.9076C18.3737 19.906 18.744 19.442 19.1729 18.9048C19.342 18.693 19.6418 18.3175 19.8128 18.1978C20.0901 18.2692 20.7411 18.6965 21.0649 18.9091C21.2357 19.0212 21.3971 19.1271 21.5388 19.2127C21.7717 19.3528 21.9679 19.4633 22.1256 19.552C22.2997 19.65 22.4954 19.7601 22.5591 19.8155C22.5627 19.8368 22.5677 19.8816 22.5682 19.9671C22.5034 20.3856 21.3294 21.9862 20.0956 21.9877Z" fill="white"/>
<path d="M28.774 16.0599C28.7301 12.6823 27.3744 9.49071 24.9566 7.07289C22.4942 4.61052 19.2439 3.25439 15.8043 3.25439C12.484 3.25439 9.37786 4.53202 7.05799 6.85183C4.99936 8.91046 3.73636 11.6561 3.50142 14.583C3.27861 17.36 3.98555 20.1703 5.49511 22.5331L3.43374 28.1051C3.34724 28.339 3.40799 28.602 3.58842 28.7741C3.70699 28.8873 3.8623 28.947 4.02005 28.947C4.1023 28.947 4.1853 28.9232 4.26399 28.8898L9.63267 26.6051C11.6822 27.8808 14.0257 28.5382 16.432 28.5382H16.4323C19.752 28.5382 22.8581 27.2758 25.1777 24.9563C27.5407 22.5932 28.8179 19.4435 28.774 16.0599ZM24.2937 24.0876C22.21 26.1712 19.418 27.3186 16.432 27.3186C14.1587 27.3185 11.9469 26.6531 10.0358 25.3943C9.93217 25.326 9.81242 25.2913 9.69199 25.2913C9.6093 25.2913 9.5263 25.3076 9.44799 25.3409L5.10824 27.1815L6.77699 22.6708C6.8468 22.482 6.82142 22.2711 6.70886 22.1043C3.64161 17.5603 4.16017 11.5174 7.94186 7.73577C10.0256 5.65202 12.8179 4.50439 15.8043 4.50439C18.91 4.50439 21.8464 5.73046 24.0727 7.95677C26.2587 10.1428 27.4844 13.0263 27.524 16.0761C27.5636 19.1198 26.4164 21.965 24.2937 24.0876Z" fill="white"/>
</svg>
